<svg xmlns="http://www.w3.org/2000/svg" xmlns:xlink="http://www.w3.org/1999/xlink" xmlns:svgjs="http://svgjs.dev/svgjs" version="1.1" viewBox="112.8 -0.5 624.5 624.5"><g transform="matrix(1,0,0,1,-0.6060606060606233,0.2522267206477409)"><svg xmlns="http://www.w3.org/2000/svg" xmlns:xlink="http://www.w3.org/1999/xlink" viewBox="0 0 396 247" data-background-color="#ffffff" preserveAspectRatio="xMidYMid meet" height="623" width="1000"><g id="tight-bounds" transform="matrix(1,0,0,1,0.2400000000000091,-0.09999999999999432)"><svg viewBox="0 0 395.52 247.2" height="247.2" width="395.52"><g><svg/></g><g><svg viewBox="0 0 395.52 247.2" height="247.2" width="395.52"><g transform="matrix(1,0,0,1,109.58355737704919,47.215199999999996)"><svg viewBox="0 0 176.3528852459016 152.7696" height="152.7696" width="176.3528852459016"><g><svg viewBox="0 0 176.3528852459016 152.7696" height="152.7696" width="176.3528852459016"><g><svg viewBox="0 0 176.3528852459016 152.7696" height="152.7696" width="176.3528852459016"><g><svg viewBox="0 0 176.3528852459016 152.7696" height="152.7696" width="176.3528852459016"><g id="textblocktransform"><svg viewBox="0 0 176.3528852459016 152.7696" height="152.7696" width="176.3528852459016" id="textblock"><g><svg viewBox="0 0 176.3528852459016 152.7696" height="152.7696" width="176.3528852459016"><g transform="matrix(1,0,0,1,0,0)"><svg width="176.3528852459016" viewBox="2.6 -36.6 42.25 36.6" height="152.7696" data-palette-color="#ffffff"><path d="M2.6-36.6L2.6-36.6 10.2-36.6 10.2 0 3.3 0 3.3-33.55Q3.3-33.6 3.13-34.3 2.95-35 2.8-35.75 2.65-36.5 2.6-36.6ZM26.45-36.6L31.9-36.6 44.85 0 37.45 0 33.85-10.5 22.95-10.5 19.3 0 13.5 0 26.45-36.6ZM32.2-15.4L28.4-27.9 24.65-15.4 32.2-15.4Z" opacity="1" transform="matrix(1,0,0,1,0,0)" fill="#ffffff" class="wordmark-text-0" data-fill-palette-color="primary" id="text-0"/></svg></g></svg></g></svg></g></svg></g></svg></g></svg></g></svg></g><path d="M291.885 41.215L291.885 0 44.685 0 44.685 247.2 291.885 247.2 291.885 205.985 278.108 205.985 278.108 233.423 58.462 233.423 58.462 13.777 278.108 13.777 278.108 41.215Z" fill="#ffffff" stroke="transparent" data-fill-palette-color="primary"/></svg></g><defs/></svg><rect width="395.52" height="247.2" fill="none" stroke="none" visibility="hidden"/></g></svg></g></svg>